<svg viewBox="0 0 720 720" fill="none" xmlns="http://www.w3.org/2000/svg">
<path fill-rule="evenodd" clip-rule="evenodd" d="M0 360C0 229.232 0 163.848 26.9106 114.565C47.1229 77.5491 77.5491 47.1229 114.565 26.9106C163.848 0 229.232 0 360 0C490.768 0 556.152 0 605.435 26.9106C642.451 47.1229 672.877 77.5491 693.089 114.565C720 163.848 720 229.232 720 360C720 490.768 720 556.152 693.089 605.435C672.877 642.451 642.451 672.877 605.435 693.089C556.152 720 490.768 720 360 720C229.232 720 163.848 720 114.565 693.089C77.5491 672.877 47.1229 642.451 26.9106 605.435C0 556.152 0 490.768 0 360ZM208 288C208 270.327 222.327 256 240 256C257.673 256 272 270.327 272 288V432C272 449.673 257.673 464 240 464C222.327 464 208 449.673 208 432V288ZM481 256C463.327 256 449 270.327 449 288V432C449 449.673 463.327 464 481 464C498.673 464 513 449.673 513 432V288C513 270.327 498.673 256 481 256Z" fill="currentColor"/>
</svg>
